<?xml version="1.0" encoding="UTF-8"?>
<svg width="24px" height="19px" viewBox="0 0 24 19" version="1.1" xmlns="http://www.w3.org/2000/svg" xmlns:xlink="http://www.w3.org/1999/xlink">
    <!-- Generator: Sketch 53.1 (72631) - https://sketchapp.com -->
    <title>Group 8</title>
    <desc>Created with Sketch.</desc>
    <g id="Portal" stroke="none" stroke-width="1" fill="none" fill-rule="evenodd">
        <g id="Home---Activar-tarjeta" transform="translate(-47.000000, -605.000000)" fill="#808080" stroke="#808080">
            <g id="Menu" transform="translate(0.000000, 78.000000)">
                <g id="Descubrenos" transform="translate(35.000000, 512.000000)">
                    <g id="Group-8" transform="translate(13.000000, 16.000000)">
                        <path d="M4.25932848,17 C6.58174366,17 8.51708965,14.9628099 8.58160118,12.4338843 L9.35573957,10.2561983 L12.5813162,10.2561983 L13.3554546,12.4338843 C13.4199661,14.9628099 15.3553121,17 17.6777273,17 C20.064654,17 22,14.892562 22,12.2933884 C22,11.3801653 21.7419539,10.5371901 21.2903731,9.76446281 C21.2903731,9.76446281 21.2903731,9.76446281 21.2903731,9.76446281 L18.0647965,1.82644628 C17.7422388,0.983471074 17.032612,0.280991736 16.2584736,0.0702479339 C16.1294505,0 15.9359159,0 15.8068929,0 C15.097266,0 14.4521507,0.280991736 14.0005699,0.842975207 C13.6135007,1.33471074 13.3554546,1.89669421 13.2909431,2.52892562 L8.58160118,2.52892562 C8.51708965,1.89669421 8.25904352,1.33471074 7.87197432,0.842975207 C7.80746279,0.772727273 7.67843972,0.632231405 7.54941666,0.561983471 C6.8397898,0.140495868 5.8721168,0.0702479339 5.09797841,0.421487603 C4.58188615,0.632231405 4.13030542,1.12396694 3.93677082,1.68595041 L0.711194182,9.69421488 C0.775705714,9.62396694 0.840217247,9.55371901 0.840217247,9.48347107 C0.324124985,10.2561983 0.00156732091,11.2396694 0.00156732091,12.2933884 C-0.0629442119,14.822314 1.87240177,17 4.25932848,17 Z M17.6777273,15.946281 C15.8068929,15.946281 14.3231276,14.3305785 14.3231276,12.2933884 C14.3231276,10.2561983 15.8068929,8.64049587 17.6777273,8.64049587 C19.5485618,8.64049587 21.032327,10.2561983 21.032327,12.2933884 C21.032327,14.2603306 19.4840502,15.946281 17.6777273,15.946281 Z M4.77542075,2.10743802 C4.90444381,1.75619835 5.16248994,1.54545455 5.42053607,1.40495868 C6.00113987,1.12396694 6.58174366,1.19421488 7.03332439,1.47520661 C7.09783593,1.54545455 7.16234746,1.54545455 7.16234746,1.61570248 C7.48490512,1.96694215 7.61392819,2.38842975 7.61392819,2.80991736 L7.61392819,3.58264463 L14.2586161,3.58264463 L14.2586161,2.80991736 C14.2586161,2.31818182 14.4521507,1.89669421 14.7101968,1.61570248 C15.0327545,1.26446281 15.4198237,1.12396694 15.8068929,1.12396694 C15.8714044,1.12396694 15.8714044,1.12396694 16.0004275,1.12396694 C16.5165197,1.26446281 16.9681004,1.68595041 17.161635,2.24793388 L19.4840502,8.0785124 C18.9034464,7.79752066 18.2583311,7.58677686 17.5487042,7.58677686 C15.7423813,7.58677686 14.2586161,8.78099174 13.5489892,10.3966942 L13.2264315,9.1322314 L8.71062425,9.1322314 L8.25904352,10.3966942 C7.61392819,8.7107438 6.0656514,7.58677686 4.25932848,7.58677686 C3.54970162,7.58677686 2.9045863,7.79752066 2.3239825,8.0785124 L4.77542075,2.10743802 Z M4.25932848,8.64049587 C6.13016294,8.64049587 7.61392819,10.2561983 7.61392819,12.2933884 C7.61392819,14.3305785 6.13016294,15.946281 4.25932848,15.946281 C2.38849403,15.946281 0.90472878,14.3305785 0.90472878,12.2933884 C0.90472878,10.2561983 2.45300557,8.64049587 4.25932848,8.64049587 Z" id="Shape" stroke-width="0.3" fill-rule="nonzero"></path>
                        <rect id="Rectangle" stroke-width="0.5" x="8.25" y="5.36842105" width="5.58333333" height="1"></rect>
                    </g>
                </g>
            </g>
        </g>
    </g>
</svg>