<?xml version="1.0" encoding="UTF-8"?>
<svg width="20px" height="20px" viewBox="0 0 20 20" version="1.1" xmlns="http://www.w3.org/2000/svg" xmlns:xlink="http://www.w3.org/1999/xlink">
    <!-- Generator: Sketch 53.1 (72631) - https://sketchapp.com -->
    <title>ayuda</title>
    <desc>Created with Sketch.</desc>
    <g id="Portal" stroke="none" stroke-width="1" fill="none" fill-rule="evenodd">
        <g id="Home---Activar-tarjeta" transform="translate(-49.000000, -459.000000)" fill="#808080" stroke="#808080">
            <g id="Menu" transform="translate(0.000000, 78.000000)">
                <g id="Ayuda" transform="translate(35.000000, 367.000000)">
                    <g id="ayuda" transform="translate(15.000000, 15.000000)">
                        <g id="?">
                            <path d="M9,18 C4.0374,18 0,13.9626 0,9 C0,4.0374 4.0374,0 9,0 C13.9626,0 18,4.0374 18,9 C18,13.9626 13.9626,18 9,18 Z M9,0.72 C4.43439,0.72 0.72,4.43439 0.72,9 C0.72,13.56561 4.43439,17.28 9,17.28 C13.56561,17.28 17.28,13.56561 17.28,9 C17.28,4.43439 13.56561,0.72 9,0.72 Z" id="Shape" fill-rule="nonzero"></path>
                            <path d="M8.89976472,10.8612 C8.82776436,10.8612 8.77016494,10.8396002 8.72696472,10.7964 C8.6837645,10.7531998 8.66216472,10.6956004 8.66216472,10.6236 L8.66216472,10.1808 C8.67656479,9.79919809 8.7755638,9.4680014 8.95916472,9.1872 C9.14276564,8.9063986 9.40376303,8.59320173 9.74216472,8.2476 C10.001366,7.98119867 10.1939641,7.76160086 10.3199647,7.5888 C10.4459653,7.41599914 10.5197646,7.22880101 10.5413647,7.0272 C10.5485648,6.99839986 10.5521647,6.95160032 10.5521647,6.8868 C10.5521647,6.55559834 10.4117661,6.29280097 10.1309647,6.0984 C9.85016332,5.90399903 9.52256659,5.8068 9.14816472,5.8068 C8.7449627,5.8068 8.40836607,5.91299894 8.13836472,6.1254 C7.86836337,6.33780106 7.69376512,6.67079773 7.61456472,7.1244 C7.58576458,7.28280079 7.49216551,7.362 7.33376472,7.362 L6.85856472,7.362 C6.7937644,7.362 6.73796495,7.34040022 6.69116472,7.2972 C6.64436449,7.25399978 6.62096472,7.19640036 6.62096472,7.1244 C6.63536479,6.72839802 6.74876366,6.36300167 6.96116472,6.0282 C7.17356578,5.69339833 7.47236279,5.42700099 7.85756472,5.229 C8.24276665,5.03099901 8.68376224,4.932 9.18056472,4.932 C9.70616735,4.932 10.1489629,5.0219991 10.5089647,5.202 C10.8689665,5.3820009 11.1353639,5.61779854 11.3081647,5.9094 C11.4809656,6.20100146 11.5673647,6.50879838 11.5673647,6.8328 C11.5673647,7.20000184 11.4845655,7.51679867 11.3189647,7.7832 C11.1533639,8.04960133 10.9049664,8.35919824 10.5737647,8.712 C10.3001634,9.00720148 10.0949654,9.25739897 9.95816472,9.4626 C9.82136404,9.66780103 9.74216483,9.89639874 9.72056472,10.1484 C9.70616465,10.350001 9.69896472,10.5011995 9.69896472,10.602 C9.66296454,10.7748009 9.57296544,10.8612 9.42896472,10.8612 L8.89976472,10.8612 Z M8.80256472,12.6 C8.73056436,12.6 8.67116495,12.5766002 8.62436472,12.5298 C8.57756449,12.4829998 8.55416472,12.4236004 8.55416472,12.3516 L8.55416472,11.7252 C8.55416472,11.6531996 8.57756449,11.5920003 8.62436472,11.5416 C8.67116495,11.4911997 8.73056436,11.466 8.80256472,11.466 L9.47216472,11.466 C9.54416508,11.466 9.60536447,11.4911997 9.65576472,11.5416 C9.70616497,11.5920003 9.73136472,11.6531996 9.73136472,11.7252 L9.73136472,12.3516 C9.73136472,12.4236004 9.70616497,12.4829998 9.65576472,12.5298 C9.60536447,12.5766002 9.54416508,12.6 9.47216472,12.6 L8.80256472,12.6 Z"></path>
                        </g>
                    </g>
                </g>
            </g>
        </g>
    </g>
</svg>