<?xml version="1.0" encoding="UTF-8"?>
<svg width="20px" height="20px" viewBox="0 0 20 20" version="1.1" xmlns="http://www.w3.org/2000/svg" xmlns:xlink="http://www.w3.org/1999/xlink">
    <!-- Generator: Sketch 53.1 (72631) - https://sketchapp.com -->
    <title>Combined Shape</title>
    <desc>Created with Sketch.</desc>
    <defs>
        <path d="M24,27 L27,27 C27.5522847,27 28,26.5522847 28,26 C28,25.4477153 27.5522847,25 27,25 L23,25 C22.4477153,25 22,25.4477153 22,26 L22,31 L18,31 L18,24.4142136 L25,17.4142136 L32,24.4142136 L32,31 L27,31 C26.4477153,31 26,31.4477153 26,32 C26,32.5522847 26.4477153,33 27,33 L33,33 C33.5522847,33 34,32.5522847 34,32 L34,24 C34,23.7347835 33.8946432,23.4804296 33.7071068,23.2928932 L25.7071068,15.2928932 C25.3165825,14.9023689 24.6834175,14.9023689 24.2928932,15.2928932 L16.2928932,23.2928932 C16.1053568,23.4804296 16,23.7347835 16,24 L16,32 C16,32.5522847 16.4477153,33 17,33 L23,33 C23.5522847,33 24,32.5522847 24,32 L24,27 Z" id="path-1"></path>
    </defs>
    <g id="Portal" stroke="none" stroke-width="1" fill="none" fill-rule="evenodd">
        <g id="Home---Activar-tarjeta" transform="translate(-49.000000, -178.000000)">
            <g id="Menu" transform="translate(0.000000, 78.000000)">
                <g id="icon_inicio" transform="translate(34.000000, 86.000000)">
                    <g id="Group-9">
                        <mask id="mask-2" fill="white">
                            <use xlink:href="#path-1"></use>
                        </mask>
                        <use id="Combined-Shape" stroke="#FFFFFF" stroke-width="0.2" fill="#FFFFFF" fill-rule="nonzero" xlink:href="#path-1"></use>
                    </g>
                </g>
            </g>
        </g>
    </g>
</svg>