<?xml version="1.0" encoding="UTF-8"?>
<svg width="17px" height="16px" viewBox="0 0 17 16" version="1.1" xmlns="http://www.w3.org/2000/svg" xmlns:xlink="http://www.w3.org/1999/xlink">
    <!-- Generator: Sketch 53.1 (72631) - https://sketchapp.com -->
    <title>Group</title>
    <desc>Created with Sketch.</desc>
    <g id="Portal" stroke="none" stroke-width="1" fill="none" fill-rule="evenodd">
        <g id="Ajustes--Cambiar-email" transform="translate(-385.000000, -928.000000)" fill="#000000" stroke="#000000" stroke-width="0.64">
            <g id="Menu" transform="translate(366.000000, 283.000000)">
                <g id="Icon-4" transform="translate(1.000000, 629.000000)">
                    <g id="Group" transform="translate(26.500000, 24.000000) rotate(-180.000000) translate(-26.500000, -24.000000) translate(19.000000, 17.000000)">
                        <path d="M13.3945553,0 L7.96867925,0 C7.07680593,0 6.34770889,0.754513274 6.34770889,1.66538053 L6.34770889,3.13736283 C6.34770889,3.36544503 6.52872584,3.55034218 6.75202156,3.55034218 C6.97531728,3.55034218 7.15633423,3.36544503 7.15633423,3.13736283 L7.15633423,1.66538053 C7.15747989,1.20607063 7.51893137,0.832515583 7.96855795,0.825958702 L13.394434,0.825958702 C13.8404313,0.825958702 14.1913747,1.2100295 14.1913747,1.66538053 L14.1913747,12.3446549 C14.1939313,12.5620164 14.1118464,12.7715123 13.9631787,12.9270535 C13.8145109,13.0825946 13.611439,13.1714392 13.3986388,13.1740413 L7.96871968,13.1740413 C7.52092665,13.1722769 7.1582845,12.8020457 7.15633423,12.3446549 L7.15633423,10.9033569 C7.15633423,10.6752747 6.97531728,10.4903776 6.75202156,10.4903776 C6.52872584,10.4903776 6.34770889,10.6752747 6.34770889,10.9033569 L6.34770889,12.3446549 C6.35013083,13.2579467 7.07443185,13.9976628 7.96855795,14 L13.394434,14 C13.8219267,13.9983056 14.2312504,13.8232151 14.5323543,13.5132482 C14.8334582,13.2032812 15.0016761,12.7838302 15,12.347174 L15,1.66538053 C15,0.754513274 14.2863073,0 13.3945553,0 Z" id="Path"></path>
                        <path d="M1.41642857,7.43362832 L10.9851752,7.43362832 C11.2084709,7.43362832 11.3894879,7.24873117 11.3894879,7.02064897 C11.3894879,6.79256677 11.2084709,6.60766962 10.9851752,6.60766962 L1.3265903,6.60766962 L3.40095687,4.15841298 C3.5471907,3.98468268 3.52915349,3.72306395 3.36052561,3.5719823 C3.19255116,3.42198431 2.93734447,3.43943674 2.79044474,3.61096755 L0.17583558,6.68729204 C0.0794071011,6.76820746 0.0251118305,6.89018372 0.0288064972,7.0175981 C0.0325011639,7.14501248 0.0937690062,7.26349252 0.194716981,7.33843658 L2.80969003,10.0093392 C2.96758332,10.170614 3.22357571,10.170614 3.381469,10.0093392 C3.45627896,9.93436158 3.49886487,9.83209943 3.49985816,9.72504967 C3.50085145,9.61799991 3.46017075,9.51493167 3.3867655,9.43851917 C3.38502695,9.43670206 3.38324798,9.43488496 3.381469,9.43310914 L1.41642857,7.43362832 Z" id="Path"></path>
                    </g>
                </g>
            </g>
        </g>
    </g>
</svg>