<?xml version="1.0" encoding="UTF-8"?>
<svg width="14px" height="22px" viewBox="0 0 14 22" version="1.1" xmlns="http://www.w3.org/2000/svg" xmlns:xlink="http://www.w3.org/1999/xlink">
    <!-- Generator: Sketch 53.1 (72631) - https://sketchapp.com -->
    <title>Group</title>
    <desc>Created with Sketch.</desc>
    <g id="Portal" stroke="none" stroke-width="1" fill="none" fill-rule="evenodd">
        <g id="Ajustes--Cambiar-email" transform="translate(-384.000000, -476.000000)" fill="#000000" stroke="#000000" stroke-width="0.72">
            <g id="Menu" transform="translate(366.000000, 283.000000)">
                <g id="Icon-3" transform="translate(0.000000, 179.000000)">
                    <g id="Group" transform="translate(19.000000, 15.000000)">
                        <path d="M0.803384615,19.6958824 C0.976923077,19.7323529 1.17107692,19.7138235 1.34707692,19.7138235 L10.8289231,19.7138235 C11.4298462,19.7138235 11.7489231,19.2282353 11.7664615,18.6905882 L11.7664615,1.445 C11.7664615,1.16647059 11.7378462,0.890294118 11.5726154,0.648235294 C11.4175385,0.421176471 11.1689231,0.281470588 10.884,0.281470588 L1.01169231,0.281470588 C0.428,0.281470588 0.108,0.801470588 0.108,1.31411765 L0.108,18.6120588 C0.108,19.0570588 0.289538462,19.5879412 0.803384615,19.6958824 Z M0.994769231,18.6408824 L0.994769231,1.30617647 C0.994769231,1.29147059 0.997230769,1.255 0.996615385,1.24617647 C1.00338462,1.22705882 1.03015385,1.13676471 1.02153846,1.14882353 C1.02523077,1.14235294 1.02984615,1.13558824 1.03446154,1.12911765 L10.8409231,1.12911765 C10.8683077,1.17735294 10.8793846,1.23941176 10.8793846,1.30941176 L10.8793846,18.6902941 C10.8769231,18.7614706 10.8646154,18.8170588 10.84,18.8661765 L10.8384615,18.8661765 C10.8384615,18.8661765 10.8372308,18.8658824 10.8363077,18.8661765 L1.032,18.8661765 C1.012,18.8317647 1.00861538,18.8038235 0.995384615,18.7461765 C0.990153846,18.7244118 0.994769231,18.6723529 0.994769231,18.6408824 Z" id="Shape" fill-rule="nonzero"></path>
                        <path d="M4.89476923,17.1445534 L6.82430769,17.1445534 C7.396,17.1445534 7.396,16.2972004 6.82430769,16.2972004 L4.89476923,16.2972004 C4.32276923,16.2969063 4.32276923,17.1445534 4.89476923,17.1445534 Z" id="Path"></path>
                    </g>
                </g>
            </g>
        </g>
    </g>
</svg>