<?xml version="1.0" encoding="UTF-8"?>
<svg width="17px" height="24px" viewBox="0 0 17 24" version="1.1" xmlns="http://www.w3.org/2000/svg" xmlns:xlink="http://www.w3.org/1999/xlink">
    <!-- Generator: Sketch 53.1 (72631) - https://sketchapp.com -->
    <title>Group</title>
    <desc>Created with Sketch.</desc>
    <g id="Portal" stroke="none" stroke-width="1" fill="none" fill-rule="evenodd">
        <g id="Legal" transform="translate(-382.000000, -311.000000)" fill="#1DC1C1">
            <g id="Menu" transform="translate(366.000000, 283.000000)">
                <g id="Icon-1" transform="translate(0.000000, 15.000000)">
                    <g id="Group" transform="translate(16.000000, 13.000000)">
                        <path d="M10.1190476,-5.32907052e-16 L2.02380952,-5.32907052e-16 C0.906645153,0.00132244653 0.00133818994,0.89597874 1.77635684e-15,2 L1.77635684e-15,16.4 C0.00133818994,17.5040213 0.906645153,18.3986776 2.02380952,18.4 L5.66666667,18.4 L5.66666667,19.4532 C5.66978892,21.9630491 7.72786696,23.9969145 10.2675952,24 L16.5952381,24 C16.8187819,24 17,23.8209139 17,23.6 L17,13.4032 C16.9987031,12.4042908 16.6548373,11.4353093 16.0245238,10.6544 L12.1428571,5.8592 L12.1428571,2 C12.141519,0.89597874 11.236212,0.00132244653 10.1190476,-5.32907052e-16 Z M10.1190476,0.8 C10.7896791,0.8 11.3333333,1.3372583 11.3333333,2 L11.3333333,12.4912 L9.71428571,10.7912 L9.71428571,0.8 L10.1190476,0.8 Z M8.9047619,9.9412 L8.21221429,9.214 C8.06180056,9.05905157 7.88525567,8.93114455 7.69047619,8.836 L7.69047619,0.8 L8.9047619,0.8 L8.9047619,9.9412 Z M0.80952381,16.4 L0.80952381,2 C0.80952381,1.3372583 1.35317804,0.8 2.02380952,0.8 L6.88095238,0.8 L6.88095238,8.6328 L6.87730952,8.6328 C6.36943385,8.61619435 5.87821171,8.81298773 5.52540476,9.1744 C4.84234454,9.85680436 4.79675988,10.9407375 5.42016667,11.6768 L6.88095238,13.3828 L6.88095238,17.6 L2.02380952,17.6 C1.35317804,17.6 0.80952381,17.0627417 0.80952381,16.4 Z M8.9452381,17.6 L7.69047619,17.6 L7.69047619,14.3284 L8.9047619,15.7464 L8.9047619,16.9824 C8.90599312,17.1888727 8.9195085,17.3950953 8.9452381,17.6 Z M15.391881,11.1544 C15.9080342,11.7930308 16.1895871,12.5858684 16.1904762,13.4032 L16.1904762,23.2 L10.2675952,23.2 C8.17467731,23.1975754 6.47864394,21.5214954 6.47619048,19.4532 L6.47619048,18.4 L9.10511905,18.4 C9.56729326,20.0424062 10.7924799,21.3696079 12.4051429,21.9748 L12.6884762,21.2252 C10.9030547,20.5568227 9.72000785,18.8691596 9.71428571,16.9824 L9.71428571,15.6 C9.71436069,15.5054147 9.68051647,15.4138632 9.6187619,15.3416 L6.0382381,11.16 C5.6843242,10.7422571 5.71009682,10.1270061 6.0977381,9.7396 C6.29896895,9.53488432 6.57812904,9.4233724 6.86678571,9.4324 C7.15423488,9.43556716 7.42786157,9.55480085 7.62409524,9.7624 L13.0636905,15.4744 L13.6538333,14.9256 L12.1428571,13.3412 L12.1428571,7.1412 L15.391881,11.1544 Z" id="Shape" fill-rule="nonzero"></path>
                        <rect id="Rectangle" x="2.02380952" y="2" width="1" height="5.2"></rect>
                        <rect id="Rectangle" x="4.04761905" y="2" width="1" height="3.2"></rect>
                        <path d="M4.85714286,13.2 L2.42857143,13.2 C2.2050276,13.2 2.02380952,13.3790861 2.02380952,13.6 L2.02380952,16 C2.02380952,16.2209139 2.2050276,16.4 2.42857143,16.4 L4.85714286,16.4 C5.08068668,16.4 5.26190476,16.2209139 5.26190476,16 L5.26190476,13.6 C5.26190476,13.3790861 5.08068668,13.2 4.85714286,13.2 Z M4.45238095,15.6 L2.83333333,15.6 L2.83333333,14 L4.45238095,14 L4.45238095,15.6 Z" id="Shape" fill-rule="nonzero"></path>
                    </g>
                </g>
            </g>
        </g>
    </g>
</svg>