<?xml version="1.0" encoding="UTF-8"?>
<svg width="25px" height="25px" viewBox="0 0 25 25" version="1.1" xmlns="http://www.w3.org/2000/svg" xmlns:xlink="http://www.w3.org/1999/xlink">
    <!-- Generator: Sketch 53.1 (72631) - https://sketchapp.com -->
    <title>Group</title>
    <desc>Created with Sketch.</desc>
    <g id="Portal" stroke="none" stroke-width="1" fill="none" fill-rule="evenodd">
        <g id="Legal" transform="translate(-378.000000, -385.000000)" fill="#000000">
            <g id="Menu" transform="translate(366.000000, 283.000000)">
                <g id="Icon-2" transform="translate(0.000000, 90.000000)">
                    <g id="Group" transform="translate(12.000000, 12.000000)">
                        <rect id="Rectangle" x="4.16666667" y="7.5" width="1" height="1"></rect>
                        <path d="M24.5833333,18.75 L20.975,18.75 C20.325044,18.2379921 19.5622256,17.8885813 18.75,17.7308333 C19.0229183,17.0736989 19.1644722,16.3694679 19.1666667,15.6579167 C19.1487359,13.338932 18.1802904,11.1288279 16.4875,9.54375 L16.4241667,9.48291667 C16.5811107,9.27073315 16.6660829,9.0139184 16.6666667,8.75 L16.6666667,5.40166667 C17.4235795,5.2922589 17.9673979,4.61671247 17.9126294,3.85389699 C17.8578609,3.0910815 17.2231124,2.50015361 16.4583333,2.5 L15,2.5 L15.80125,0.577083333 C15.8549,0.448474222 15.8407061,0.301559066 15.7634276,0.185599358 C15.686149,0.0696396511 15.5560174,-1.16258711e-05 15.4166667,-2.22044605e-16 L9.58333333,-2.22044605e-16 C9.44398259,-1.16258711e-05 9.313851,0.0696396511 9.23657244,0.185599358 C9.15929388,0.301559066 9.14509996,0.448474222 9.19875,0.577083333 L9.33666667,0.9075 L7.74416667,2.5 L0.416666667,2.5 C0.186548021,2.5 0,2.68654802 0,2.91666667 L0,9.58333333 C0,9.81345198 0.186548021,10 0.416666667,10 L8.08333333,10 C6.65122506,11.5376367 5.84829133,13.5567177 5.83333333,15.6579167 C5.83632285,16.7788024 6.17871244,17.8725026 6.81541667,18.795 C6.05389392,18.6169854 5.2764731,19.0216266 4.98541667,19.7475 C4.69251325,20.4738196 4.97289283,21.3052291 5.64583333,21.7058333 L10.4416667,24.5833333 C10.8946805,24.8555612 11.4131505,24.9995806 11.9416667,25 L24.5833333,25 C24.813452,25 25,24.813452 25,24.5833333 L25,19.1666667 C25,18.936548 24.813452,18.75 24.5833333,18.75 Z M14.7916667,0.833333333 L14.0970833,2.5 L10.9029167,2.5 L10.2083333,0.833333333 L14.7916667,0.833333333 Z M0.833333333,3.33333333 L5.83333333,3.33333333 L5.83333333,9.16666667 L0.833333333,9.16666667 L0.833333333,3.33333333 Z M6.66666667,3.33333333 L7.91666667,3.33333333 C8.02716451,3.33330973 8.13312803,3.28939557 8.21125,3.21125 L9.68333333,1.73916667 L10.2404167,3.07708333 C10.3051576,3.23227928 10.4568418,3.33334736 10.625,3.33333333 L16.4583333,3.33333333 C16.8035113,3.33333333 17.0833333,3.61315536 17.0833333,3.95833333 C17.0833333,4.3035113 16.8035113,4.58333333 16.4583333,4.58333333 L16.25,4.58333333 C16.0198814,4.58333333 15.8333333,4.76988135 15.8333333,5 L15.8333333,8.75 C15.8333333,8.98011865 15.6467853,9.16666667 15.4166667,9.16666667 L6.66666667,9.16666667 L6.66666667,3.33333333 Z M9.09083333,10.1441667 L9.24,10 L15.76,10 L15.9091667,10.1441667 C17.4384985,11.5723448 18.3148062,13.5655005 18.3333333,15.6579167 C18.3321914,16.342415 18.1795098,17.0181701 17.88625,17.6366667 C16.9755532,17.6174794 16.0757975,17.8378922 15.2770833,18.2758333 L15.1716667,18.3333333 L12.0833333,18.3333333 C11.5641654,18.3332388 11.0746049,18.5750816 10.7591968,18.9874566 C10.4437888,19.3998316 10.3385613,19.9356344 10.4745833,20.4366667 L8.85375,19.6941667 C7.50768749,18.7881308 6.69066757,17.2803251 6.66666667,15.6579167 C6.6851938,13.5655005 7.56150149,11.5723448 9.09083333,10.1441667 Z M10.8704167,23.87 L6.07458333,20.9920833 C5.75325429,20.8006436 5.61937181,20.4035945 5.75916667,20.0566667 C5.83502786,19.866254 5.9857501,19.7153457 6.17606899,19.6392497 C6.36638789,19.5631536 6.57960475,19.5685466 6.76583333,19.6541667 L11.07625,21.62875 C11.1307631,21.6537455 11.1900296,21.6666789 11.25,21.6666667 L15.4166667,21.6666667 C15.6467853,21.6666667 15.8333333,21.4801186 15.8333333,21.25 C15.8333333,21.0198814 15.6467853,20.8333333 15.4166667,20.8333333 L12.0833333,20.8333333 C11.623096,20.8333333 11.25,20.4602373 11.25,20 C11.25,19.5397627 11.623096,19.1666667 12.0833333,19.1666667 L15.2779167,19.1666667 C15.34765,19.1666903 15.4162741,19.149212 15.4775,19.1158333 L15.67625,19.0075 C17.1877451,18.1760675 19.0478808,18.3171677 20.4166667,19.3670833 L20.4166667,24.1666667 L11.9425,24.1666667 C11.5648954,24.1664814 11.1944005,24.0639581 10.8704167,23.87 Z M24.1666667,24.1666667 L21.25,24.1666667 L21.25,19.5833333 L24.1666667,19.5833333 L24.1666667,24.1666667 Z" id="Shape" fill-rule="nonzero"></path>
                        <rect id="Rectangle" x="22.0833333" y="22.5" width="1" height="1"></rect>
                        <path d="M22.1520833,9.16083333 C22.3525452,9.12693264 22.4992728,8.95330821 22.4992728,8.75 C22.4992728,8.54669179 22.3525452,8.37306736 22.1520833,8.33916667 C21.4729465,8.22590249 20.9407642,7.69372019 20.8275,7.01458333 C20.7935993,6.81412144 20.6199749,6.66739388 20.4166667,6.66739388 C20.2133585,6.66739388 20.039734,6.81412144 20.0058333,7.01458333 C19.8925692,7.69372019 19.3603869,8.22590249 18.68125,8.33916667 C18.4807881,8.37306736 18.3340605,8.54669179 18.3340605,8.75 C18.3340605,8.95330821 18.4807881,9.12693264 18.68125,9.16083333 C19.3603869,9.27409751 19.8925692,9.80627981 20.0058333,10.4854167 C20.039734,10.6858786 20.2133585,10.8326061 20.4166667,10.8326061 C20.6199749,10.8326061 20.7935993,10.6858786 20.8275,10.4854167 C20.9407642,9.80627981 21.4729465,9.27409751 22.1520833,9.16083333 Z M20.4166667,9.345 C20.2541958,9.11378279 20.0528839,8.91247084 19.8216667,8.75 C20.0528839,8.58752916 20.2541958,8.38621721 20.4166667,8.155 C20.5791375,8.38621721 20.7804495,8.58752916 21.0116667,8.75 C20.7804495,8.91247084 20.5791375,9.11378279 20.4166667,9.345 L20.4166667,9.345 Z" id="Shape" fill-rule="nonzero"></path>
                        <path d="M20.9966667,17.215 C21.2941342,16.3235779 21.3308516,15.3657455 21.1025,14.4541667 L21.0054167,14.0658333 L20.1970833,14.2675 L20.2941667,14.65625 C20.4838362,15.4141967 20.453191,16.2105379 20.2058333,16.9516667 L20.9966667,17.215 Z" id="Path"></path>
                        <path d="M6.66666667,1.66666667 C6.66666667,1.20642938 7.03976271,0.833333333 7.5,0.833333333 L7.5,0 C6.57952542,-9.25185854e-17 5.83333333,0.746192084 5.83333333,1.66666667 L6.66666667,1.66666667 Z" id="Path"></path>
                        <path d="M12.0833333,14.5833333 L12.9166667,14.5833333 C13.1467853,14.5833333 13.3333333,14.7698814 13.3333333,15 C13.3333333,15.2301186 13.1467853,15.4166667 12.9166667,15.4166667 L11.25,15.4166667 L11.25,16.25 L12.0833333,16.25 L12.0833333,17.0833333 L12.9166667,17.0833333 L12.9166667,16.25 C13.6070226,16.25 14.1666667,15.6903559 14.1666667,15 C14.1666667,14.3096441 13.6070226,13.75 12.9166667,13.75 L12.0833333,13.75 C11.8532147,13.75 11.6666667,13.563452 11.6666667,13.3333333 C11.6666667,13.1032147 11.8532147,12.9166667 12.0833333,12.9166667 L13.75,12.9166667 L13.75,12.0833333 L12.9166667,12.0833333 L12.9166667,11.25 L12.0833333,11.25 L12.0833333,12.0833333 C11.3929774,12.0833333 10.8333333,12.6429774 10.8333333,13.3333333 C10.8333333,14.0236893 11.3929774,14.5833333 12.0833333,14.5833333 L12.0833333,14.5833333 Z" id="Path"></path>
                    </g>
                </g>
            </g>
        </g>
    </g>
</svg>