<?xml version="1.0" encoding="UTF-8"?>
<svg width="17px" height="28px" viewBox="0 0 17 28" version="1.1" xmlns="http://www.w3.org/2000/svg" xmlns:xlink="http://www.w3.org/1999/xlink">
    <!-- Generator: Sketch 53.1 (72631) - https://sketchapp.com -->
    <title>Group</title>
    <desc>Created with Sketch.</desc>
    <g id="Portal" stroke="none" stroke-width="1" fill="none" fill-rule="evenodd">
        <g id="Legal" transform="translate(-382.000000, -463.000000)" fill="#000000" fill-rule="nonzero" stroke="#FFFFFF" stroke-width="0.3">
            <g id="Menu" transform="translate(366.000000, 283.000000)">
                <g id="Icon-3" transform="translate(0.000000, 170.000000)">
                    <g id="Group" transform="translate(17.000000, 11.000000)">
                        <path d="M1.66666667,0 C0.752938889,0 0,0.766038714 0,1.69565125 L0,24.3043487 C0,25.2339613 0.752938889,26 1.66666667,26 L13.3333333,26 C14.2470611,26 15,25.2339613 15,24.3043487 L15,1.69565125 C15,0.766038714 14.2470611,0 13.3333333,0 L1.66666667,0 Z M1.66666667,1.13043417 L13.3333333,1.13043417 C13.6507222,1.13043417 13.8888889,1.37274273 13.8888889,1.69565125 L13.8888889,2.82608542 L1.11111111,2.82608542 L1.11111111,1.69565125 C1.11111111,1.37274273 1.34927778,1.13043417 1.66666667,1.13043417 Z M1.11111111,3.95650828 L13.8888889,3.95650828 L13.8888889,20.9130462 L1.11111111,20.9130462 L1.11111111,3.95650828 Z M7.48263889,7.06520225 C7.39111944,7.06972398 7.30079444,7.09722179 7.22222222,7.14467177 L3.33333333,9.40554011 C3.16540833,9.50385962 3.05570278,9.6956943 3.05555556,9.89128767 L3.05555556,14.4130498 C3.05570278,14.6086431 3.16540833,14.8004778 3.33333333,14.8987973 L7.22222222,17.1596657 C7.31078333,17.2129091 7.41422222,17.2407743 7.51736111,17.2391352 C7.60888056,17.2346135 7.69920556,17.2071156 7.77777778,17.1596657 L11.6666667,14.8987973 C11.8345917,14.8004778 11.9442972,14.6086431 11.9444444,14.4130498 L11.9444444,9.89128767 C11.9442972,9.6956943 11.8345917,9.50385962 11.6666667,9.40554011 L7.77777778,7.14467177 C7.68921667,7.09142832 7.58577778,7.06356312 7.48263889,7.06520225 Z M7.5,8.28395158 L10.2690972,9.89128767 L7.5,11.4986238 L4.73090278,9.89128767 L7.5,8.28395158 Z M4.16666667,10.8627545 L6.94444444,12.4789052 L6.94444444,15.7024512 L4.16666667,14.0862978 L4.16666667,10.8627545 Z M10.8333333,10.8627545 L10.8333333,14.0862978 L8.05555556,15.7024512 L8.05555556,12.4789052 L10.8333333,10.8627545 Z M1.11111111,22.0434804 L13.8888889,22.0434804 L13.8888889,24.3043487 C13.8888889,24.6272573 13.6507222,24.8695658 13.3333333,24.8695658 L1.66666667,24.8695658 C1.34927778,24.8695658 1.11111111,24.6272573 1.11111111,24.3043487 L1.11111111,22.0434804 Z M7.5,22.6086975 C7.03977778,22.6086975 6.66666667,22.988269 6.66666667,23.4565231 C6.66666667,23.924749 7.03977778,24.3043487 7.5,24.3043487 C7.96025,24.3043487 8.33333333,23.924749 8.33333333,23.4565231 C8.33333333,22.988269 7.96025,22.6086975 7.5,22.6086975 Z" id="Shape"></path>
                    </g>
                </g>
            </g>
        </g>
    </g>
</svg>