<?xml version="1.0" encoding="UTF-8"?>
<svg width="25px" height="22px" viewBox="0 0 25 22" version="1.1" xmlns="http://www.w3.org/2000/svg" xmlns:xlink="http://www.w3.org/1999/xlink">
    <!-- Generator: Sketch 53.1 (72631) - https://sketchapp.com -->
    <title>Cash Advance</title>
    <desc>Created with Sketch.</desc>
    <g id="Portal" stroke="none" stroke-width="1" fill="none" fill-rule="evenodd">
        <g id="Home---Activar-tarjeta" transform="translate(-47.000000, -321.000000)" fill="#808080" fill-rule="nonzero" stroke="#808080">
            <g id="Menu" transform="translate(0.000000, 78.000000)">
                <g id="Solicitar-prestamo" transform="translate(35.000000, 230.000000)">
                    <g id="Cash-Advance" transform="translate(13.000000, 14.000000)">
                        <path d="M10.4047619,0 C7.68695681,0 5.47619048,2.12476398 5.47619048,4.73684211 C5.47619048,7.34892023 7.68695681,9.47368421 10.4047619,9.47368421 C13.122567,9.47368421 15.3333333,7.34892023 15.3333333,4.73684211 C15.3333333,2.12476398 13.122567,0 10.4047619,0 Z M10.4047619,0.676691729 C12.7420528,0.676691729 14.6292517,2.49047526 14.6292517,4.73684211 C14.6292517,6.98320861 12.7420528,8.79699248 10.4047619,8.79699248 C8.06747069,8.79699248 6.18027211,6.98320861 6.18027211,4.73684211 C6.18027211,2.49047526 8.06747069,0.676691729 10.4047619,0.676691729 Z M10.3717581,1.68115602 C10.3568685,1.68376771 10.3421696,1.68729947 10.327753,1.69172932 C10.1638327,1.72701144 10.0486775,1.86867608 10.0527211,2.03007519 L10.0527211,2.37899436 C9.74279914,2.4092232 9.46154141,2.49025805 9.21662415,2.63275376 C8.88235506,2.8272353 8.64455782,3.1894897 8.64455782,3.60549812 C8.64455782,3.92037699 8.77705719,4.18844774 8.95259354,4.38792293 C9.12812989,4.58739812 9.34151556,4.7240753 9.54666241,4.82142857 C9.95695613,5.01613511 10.3497555,5.07518797 10.3497555,5.07518797 C10.3497555,5.07518797 10.6610378,5.11551609 10.9548257,5.25493421 C11.1017196,5.32464327 11.2403748,5.41870444 11.328869,5.51926692 C11.4173633,5.6198294 11.4608844,5.71708929 11.4608844,5.86818609 C11.4608844,6.07569801 11.3975469,6.16183477 11.2298576,6.2593985 C11.0621682,6.35696222 10.7678821,6.42857143 10.4047619,6.42857143 C9.67233993,6.42857143 9.18362032,6.14309211 9.18362032,6.14309211 C9.07745683,6.06714987 8.93595025,6.05484024 8.81732465,6.11122813 C8.69869906,6.16761601 8.62299427,6.28317561 8.62135967,6.41035896 C8.61972506,6.53754231 8.69243677,6.65486389 8.80957696,6.71405075 C8.80957696,6.71405075 9.30824312,7.00732353 10.0527211,7.08411654 L10.0527211,7.44360902 C10.0509256,7.56562869 10.1176287,7.67912527 10.2272886,7.7406387 C10.3369484,7.80215213 10.4725754,7.80215213 10.5822352,7.7406387 C10.6918951,7.67912527 10.7585982,7.56562869 10.7568027,7.44360902 L10.7568027,7.09468985 C11.0667247,7.06446102 11.3479824,6.98342617 11.5928997,6.84093045 C11.9271688,6.64644891 12.164966,6.28419451 12.164966,5.86818609 C12.164966,5.55330722 12.0324666,5.28523647 11.8569303,5.08576128 C11.6813939,4.88628609 11.4680083,4.74960891 11.2628614,4.65225564 C10.8525677,4.4575491 10.4597683,4.39849624 10.4597683,4.39849624 C10.4597683,4.39849624 10.148486,4.35816812 9.85469813,4.21875 C9.70780417,4.14904094 9.56914902,4.05497977 9.48065476,3.95441729 C9.3921605,3.85385481 9.34863946,3.75659492 9.34863946,3.60549812 C9.34863946,3.3979862 9.41197688,3.31184944 9.57966624,3.21428571 C9.7473556,3.11672199 10.0416417,3.04511278 10.4047619,3.04511278 C11.1371839,3.04511278 11.6259035,3.33059211 11.6259035,3.33059211 C11.732067,3.40653434 11.8735736,3.41884397 11.9921992,3.36245608 C12.1108248,3.3060682 12.1865295,3.1905086 12.1881641,3.06332525 C12.1897987,2.9361419 12.117087,2.81882032 11.9999469,2.75963346 C11.9999469,2.75963346 11.5012807,2.46636068 10.7568027,2.38956767 L10.7568027,2.03007519 C10.7604103,1.93274466 10.7202083,1.83863951 10.6464786,1.77182717 C10.5727488,1.70501482 10.4726411,1.6719744 10.3717581,1.68115602 Z" id="Shape" stroke-width="0.6"></path>
                        <path d="M18.8778004,10.7733776 L15.7861507,9.55934839 C15.2708758,9.36510371 14.7087576,9.51078722 14.287169,9.89927658 L9.83706721,14.5125878 L2.10794297,10.1906436 C1.68635438,9.94783775 1.17107943,9.94783775 0.702647658,10.2392048 C0.281059063,10.4820106 0,10.9676223 0,11.5017952 L0,12.2302128 C0,12.7643856 0.281059063,13.2499973 0.702647658,13.4928032 L11.1955193,19.8057553 C11.4297352,19.9514388 11.6639511,20 11.898167,20 C12.0386965,20 12.1792261,19.9514388 12.3665988,19.9028777 L18.8778004,17.5719415 L23,17.5719415 L23,10.7733776 L18.8778004,10.7733776 Z M12.0855397,18.9316543 C11.9450102,18.9802154 11.8044807,18.9802154 11.7107943,18.8830931 L1.21792261,12.5701409 C1.07739308,12.4730186 0.983706721,12.3273351 0.983706721,12.1330904 L0.983706721,11.4046729 C0.983706721,11.161867 1.12423625,11.0161835 1.21792261,10.9676223 C1.26476578,10.9190612 1.35845214,10.9190612 1.45213849,10.9190612 C1.49898167,10.9190612 1.59266802,10.9190612 1.68635438,10.9676223 L11.8044807,16.6492793 L15.3177189,14.0269761 L14.7556008,13.2499973 L11.7107943,15.4838112 L10.6802444,14.9010771 L14.8961303,10.5305718 C15.0366599,10.3848883 15.2240326,10.3363271 15.4114053,10.4334495 L18.2688391,11.5503564 L18.2688391,16.6978404 L12.0855397,18.9316543 Z M22.0631365,16.6007181 L19.2525458,16.6007181 L19.2525458,11.7446011 L22.0631365,11.7446011 L22.0631365,16.6007181 Z" id="Shape" stroke-width="0.5"></path>
                    </g>
                </g>
            </g>
        </g>
    </g>
</svg>