<?xml version="1.0" encoding="UTF-8"?>
<svg width="23px" height="15px" viewBox="0 0 23 15" version="1.1" xmlns="http://www.w3.org/2000/svg" xmlns:xlink="http://www.w3.org/1999/xlink">
    <!-- Generator: Sketch 53.1 (72631) - https://sketchapp.com -->
    <title>Card</title>
    <desc>Created with Sketch.</desc>
    <g id="Portal" stroke="none" stroke-width="1" fill="none" fill-rule="evenodd">
        <g id="Home---Activar-tarjeta" transform="translate(-48.000000, -249.000000)" fill="#808080" stroke="#808080" stroke-width="0.6">
            <g id="Menu" transform="translate(0.000000, 78.000000)">
                <g id="Icon_card" transform="translate(35.000000, 155.000000)">
                    <g id="Card" transform="translate(14.000000, 16.000000)">
                        <path d="M18.7584005,0.541666667 L2.67977151,0.541666667 C1.20268145,0.541666667 0,1.48459115 0,2.64453125 L0,11.8971354 C0,13.0570755 1.20268145,14 2.67977151,14 L18.7584005,14 C20.2354906,14 21.438172,13.0570755 21.438172,11.8971354 L21.438172,2.64453125 C21.438172,1.48459115 20.2354906,0.541666667 18.7584005,0.541666667 Z M20.5449149,11.8971354 C20.5449149,12.592763 19.8101612,13.1588542 18.9072767,13.1588542 L2.53089531,13.1588542 C1.62801081,13.1588542 0.893257168,12.592763 0.893257168,11.8971354 L0.893257168,2.64453125 C0.893257168,1.94890365 1.62801081,1.3828125 2.53089531,1.3828125 L18.9072767,1.3828125 C19.8101612,1.3828125 20.5449149,1.94890365 20.5449149,2.64453125 L20.5449149,11.8971354 Z" id="Shape" fill-rule="nonzero"></path>
                        <path d="M10.2724574,3.06510417 L3.12640009,3.06510417 C2.87986111,3.06510417 2.67977151,3.25352083 2.67977151,3.48567708 C2.67977151,3.71783333 2.87986111,3.90625 3.12640009,3.90625 L10.2724574,3.90625 C10.5189964,3.90625 10.719086,3.71783333 10.719086,3.48567708 C10.719086,3.25352083 10.5189964,3.06510417 10.2724574,3.06510417 Z" id="Path"></path>
                        <path d="M8.4859431,5.58854167 L3.12640009,5.58854167 C2.87986111,5.58854167 2.67977151,5.77695833 2.67977151,6.00911458 C2.67977151,6.24127083 2.87986111,6.4296875 3.12640009,6.4296875 L8.4859431,6.4296875 C8.73248208,6.4296875 8.93257168,6.24127083 8.93257168,6.00911458 C8.93257168,5.77695833 8.73248208,5.58854167 8.4859431,5.58854167 Z" id="Path"></path>
                        <path d="M18.311772,8.11197917 L15.6320004,8.11197917 C15.3854615,8.11197917 15.1853719,8.30039583 15.1853719,8.53255208 L15.1853719,11.0559896 C15.1853719,11.2881458 15.3854615,11.4765625 15.6320004,11.4765625 L18.311772,11.4765625 C18.5583109,11.4765625 18.7584005,11.2881458 18.7584005,11.0559896 L18.7584005,8.53255208 C18.7584005,8.30039583 18.5583109,8.11197917 18.311772,8.11197917 Z M17.8651434,10.6354167 L16.078629,10.6354167 L16.078629,8.953125 L17.8651434,8.953125 L17.8651434,10.6354167 Z" id="Shape" fill-rule="nonzero"></path>
                    </g>
                </g>
            </g>
        </g>
    </g>
</svg>