<?xml version="1.0" encoding="UTF-8"?>
<svg width="33px" height="33px" viewBox="0 0 33 33" version="1.1" xmlns="http://www.w3.org/2000/svg" xmlns:xlink="http://www.w3.org/1999/xlink">
    <!-- Generator: Sketch 53.1 (72631) - https://sketchapp.com -->
    <title>Cerrar</title>
    <desc>Created with Sketch.</desc>
    <g id="Portal" stroke="none" stroke-width="1" fill="none" fill-rule="evenodd">
        <g id="Mis-prestamos---Historial-de-pago---cerrados" transform="translate(-1377.000000, -256.000000)" fill="#365E80" stroke="#365E80">
            <g id="Pop-up-Histotial" transform="translate(854.000000, 238.000000)">
                <g id="Cerrar" transform="translate(524.000000, 19.000000)">
                    <path d="M26.3844444,4.61555556 C20.3566667,-1.41222222 10.6088889,-1.41222222 4.58111111,4.61555556 C-1.44666667,10.6433333 -1.44666667,20.3911111 4.58111111,26.4188889 C10.6088889,32.4466667 20.3566667,32.4466667 26.3844444,26.4188889 C32.4122222,20.3911111 32.4122222,10.6088889 26.3844444,4.61555556 Z M5.33888889,25.6611111 C-0.275555556,20.0466667 -0.275555556,10.9533333 5.33888889,5.37333333 C10.9533333,-0.206666667 20.0466667,-0.241111111 25.6266667,5.37333333 C31.2066667,10.9877778 31.2411111,20.0811111 25.6266667,25.6611111 C20.0122222,31.2411111 10.9533333,31.2411111 5.33888889,25.6611111 Z" id="Shape" fill-rule="nonzero"></path>
                    <path d="M20.3911111,19.6333333 L16.2577778,15.5 L20.3911111,11.3666667 C20.6322222,11.1255556 20.6322222,10.85 20.3911111,10.6088889 C20.15,10.3677778 19.8744444,10.3677778 19.6333333,10.6088889 L15.5,14.7422222 L11.3666667,10.6088889 C11.1255556,10.3677778 10.85,10.3677778 10.6088889,10.6088889 C10.3677778,10.85 10.3677778,11.1255556 10.6088889,11.3666667 L14.7422222,15.5 L10.6088889,19.6333333 C10.3677778,19.8744444 10.3677778,20.15 10.6088889,20.3911111 C10.85,20.6322222 11.1255556,20.6322222 11.3666667,20.3911111 L15.5,16.2577778 L19.6333333,20.3911111 C19.8744444,20.6322222 20.15,20.6322222 20.3911111,20.3911111 C20.5977778,20.15 20.5977778,19.8744444 20.3911111,19.6333333 Z" id="Path"></path>
                </g>
            </g>
        </g>
    </g>
</svg>