<?xml version="1.0" encoding="UTF-8"?>
<svg width="12px" height="18px" viewBox="0 0 12 18" version="1.1" xmlns="http://www.w3.org/2000/svg" xmlns:xlink="http://www.w3.org/1999/xlink">
    <!-- Generator: Sketch 53.1 (72631) - https://sketchapp.com -->
    <title>Shape</title>
    <desc>Created with Sketch.</desc>
    <g id="Portal" stroke="none" stroke-width="1" fill="none" fill-rule="evenodd">
        <g id="Ayuda---FAQ" transform="translate(-385.000000, -311.000000)" fill="#1DC1C1" fill-rule="nonzero" stroke="#1DC1C1" stroke-width="0.63">
            <g id="Menu" transform="translate(366.000000, 296.000000)">
                <g id="Preguntas-frecuentes">
                    <g id="Icon-1">
                        <path d="M24.8024699,16.0000237 C22.7946707,16.0202342 20.9718616,17.2848592 20.1035038,19.1700591 C19.9549786,19.4257571 19.96708,19.7412063 20.1347818,19.9853848 C20.3024835,20.2295634 20.5971299,20.3607476 20.8963393,20.32445 C21.1955487,20.2881525 21.4481943,20.0905755 21.5493395,19.8137828 C22.1811713,18.442081 23.5062205,17.5731308 24.814934,17.5546771 C24.8195447,17.5547082 24.8227954,17.5546343 24.8273981,17.5546771 C25.9852887,17.5654431 26.8734818,17.9002649 27.4697875,18.4291696 C28.068464,18.960177 28.4045951,19.6941017 28.4045951,20.6639838 C28.4045951,21.1683328 28.2323089,21.560463 27.8935669,22.0000141 C27.554825,22.4395651 27.0422732,22.8876823 26.4975876,23.3603358 C25.4082168,24.3056428 24.0555879,25.4389851 24.0172315,27.2469692 C24.0100536,27.5249885 24.1558034,27.7855742 24.399468,27.9303691 C24.6431327,28.0751641 24.9476052,28.0821179 25.1979637,27.9486058 C25.4483221,27.8150938 25.60644,27.5614481 25.6126365,27.2834064 C25.6348405,26.2367749 26.4678656,25.4714385 27.5570362,24.5263258 C28.1016217,24.0537501 28.6904793,23.5508391 29.1649052,22.9352353 C29.6393312,22.3194837 30,21.558749 30,20.6639838 C30,19.3149489 29.4751421,18.1032599 28.5417002,17.2753253 C27.6082583,16.4473908 26.2965287,16.0104244 24.814934,16.0000237 C24.8107794,15.9999921 24.8066245,15.9999921 24.8024699,16.0000237 Z M24.4160828,30.4453466 C24.1951192,30.4453466 24.0172315,30.6186905 24.0172315,30.83401 L24.0172315,31.6113367 C24.0172315,31.8266561 24.1951192,32 24.4160828,32 L25.2137852,32 C25.4347488,32 25.6126365,31.8266561 25.6126365,31.6113367 L25.6126365,30.83401 C25.6126365,30.6186905 25.4347488,30.4453466 25.2137852,30.4453466 L24.4160828,30.4453466 Z" id="Shape"></path>
                    </g>
                </g>
            </g>
        </g>
    </g>
</svg>