<?xml version="1.0" encoding="UTF-8"?>
<svg width="18px" height="14px" viewBox="0 0 18 14" version="1.1" xmlns="http://www.w3.org/2000/svg" xmlns:xlink="http://www.w3.org/1999/xlink">
    <!-- Generator: Sketch 53.1 (72631) - https://sketchapp.com -->
    <title>Shape</title>
    <desc>Created with Sketch.</desc>
    <g id="Portal" stroke="none" stroke-width="1" fill="none" fill-rule="evenodd">
        <g id="Ayuda---FAQ" transform="translate(-382.000000, -389.000000)" fill="#808080" fill-rule="nonzero">
            <g id="Menu" transform="translate(366.000000, 296.000000)">
                <g id="Escribenos" transform="translate(0.000000, 75.000000)">
                    <g id="Icon-2">
                        <path d="M16,29.9583105 L16,20.0424186 C16.0140613,20.0035899 16.0258023,19.9638997 16.0351562,19.9235737 C16.2207813,18.8255345 17.1425781,18.0041924 18.2190625,18.0030987 C22.7396875,17.9989671 27.2601953,17.9989671 31.7805859,18.0030987 C32.8053906,18.0030987 33.6930859,18.7497071 33.9342578,19.782491 C33.9546484,19.8696196 33.9792578,19.9560191 34,20.0427831 L34,29.9583105 C33.9872436,29.9845497 33.9769993,30.0120228 33.9694141,30.0403354 C33.8024219,31.0085931 33.1530859,31.7537432 32.2309375,31.9331042 C31.7992187,32.0176809 31.3457031,31.9965367 30.9023828,31.9969013 C26.6925391,32.0010329 22.4824609,32.0010329 18.2721484,31.9969013 C17.2371484,31.9969013 16.3677344,31.3181001 16.0864844,30.3050022 C16.0544922,30.1927193 16.0288281,30.0753327 16,29.9583105 Z M22.1245703,24.8301174 C21.8433203,25.1181158 21.5775391,25.3900737 21.3159766,25.6653126 L18.4514453,28.6273208 C18.2784766,28.8055881 18.1986719,29.0075515 18.2714453,29.2528969 C18.4015234,29.6983829 18.9042578,29.8055621 19.2421094,29.4581413 C20.4322656,28.2286193 21.6210156,26.9959378 22.8083594,25.7600969 C22.8521933,25.7065222 22.8919236,25.6494781 22.9271875,25.5894852 C23.025625,25.6828112 23.0906641,25.74114 23.155,25.8012916 L24.5865625,27.1501445 C24.8586719,27.4053329 25.1427344,27.4024165 25.41625,27.146499 C25.9114844,26.6818131 26.4064844,26.216398 26.90125,25.7502539 C26.94625,25.7065073 26.9961719,25.6634898 27.0520703,25.6102648 C27.4996094,26.0754368 27.9373047,26.5314949 28.375,26.9864594 L30.76,29.4595995 C30.9217188,29.6276593 31.1069922,29.7067677 31.3326953,29.6440643 C31.7696875,29.5212093 31.8951953,28.9936984 31.5640234,28.6477359 C30.7671484,27.8155786 29.9678125,26.9862164 29.1660156,26.159649 C28.7399219,25.7181731 28.3110156,25.2777908 27.8775391,24.8279301 C27.9341406,24.7725178 27.9801953,24.7265839 28.0273047,24.6821082 L29.7689453,23.0416113 L31.5506641,21.3617426 C31.7222266,21.2002448 31.7904297,21.0015624 31.7338281,20.7704346 C31.6895862,20.5619742 31.5336037,20.3985246 31.3330469,20.3504674 C31.1080469,20.2884931 30.9259375,20.3737989 30.7578906,20.5327448 C28.8880469,22.2988916 27.015625,24.0638231 25.140625,25.8275395 C25.095625,25.8709215 25.0471094,25.9124808 24.9971875,25.9576856 L22.3175781,23.4327787 C21.2863281,22.4635489 20.2544922,21.4928608 19.2220703,20.5207145 C19.0592969,20.3668724 18.8775391,20.2928677 18.6595703,20.3563003 C18.4605901,20.4059838 18.3063723,20.5690143 18.2623047,20.7762675 C18.2081641,21.0095826 18.2798828,21.2057131 18.4514453,21.3664818 C19.1892578,22.0601082 19.9263672,22.7545851 20.6627734,23.4499128 L22.1245703,24.8301174 Z" id="Shape"></path>
                    </g>
                </g>
            </g>
        </g>
    </g>
</svg>