<?xml version="1.0" encoding="UTF-8"?>
<svg width="86px" height="60px" viewBox="0 0 86 60" version="1.1" xmlns="http://www.w3.org/2000/svg" xmlns:xlink="http://www.w3.org/1999/xlink">
    <!-- Generator: Sketch 53.1 (72631) - https://sketchapp.com -->
    <title>Icon</title>
    <desc>Created with Sketch.</desc>
    <g id="Portal" stroke="none" stroke-width="1" fill="none" fill-rule="evenodd">
        <g id="Formulario-Solicitar-tarjeta-2" transform="translate(-586.000000, -688.000000)" fill="#808080">
            <g id="Group" transform="translate(182.000000, 128.000000)">
                <g id="Icono-1" transform="translate(404.000000, 560.000000)">
                    <g id="Icon">
                        <path d="M78.0751402,56.52 L7.08897196,56.52 C4.73190323,56.52 2.8211215,54.6181056 2.8211215,52.272 L2.8211215,14.136 L82.391215,14.136 L82.391215,40.92 L85.14,40.92 L85.14,14.112 L85.14,14.112 L85.2605607,7.056 C85.1822323,3.15449117 81.9955809,0.0252363475 78.0751402,0 L7.08897196,0 C3.20614424,0.076552431 0.0769101526,3.19123194 0,7.056 L0,52.272 C0.0769101526,56.1367681 3.20614424,59.2514476 7.08897196,59.328 L78.0751402,59.328 C81.9579679,59.2514476 85.087202,56.1367681 85.1641121,52.272 L82.3188785,52.272 C82.318916,54.6087649 80.4227871,56.5067979 78.0751402,56.52 Z M2.84523364,7.056 C2.85840733,4.72860219 4.75069846,2.84511241 7.08897196,2.832 L78.0751402,2.832 C79.2070445,2.832 80.292589,3.27955586 81.0929662,4.07621039 C81.8933434,4.87286493 82.3429907,5.95336035 82.3429907,7.08 L82.3429907,11.208 L82.3429907,11.208 L82.3429907,11.208 L2.7728972,11.208 L2.84523364,7.056 Z" id="Shape" fill-rule="nonzero"></path>
                        <rect id="Rectangle" x="36.9157009" y="19.776" width="15.6246729" height="2.832"></rect>
                        <rect id="Rectangle" x="56.7841121" y="19.776" width="15.6246729" height="2.832"></rect>
                        <rect id="Rectangle" x="36.9157009" y="26.832" width="7.08897196" height="2.832"></rect>
                        <rect id="Rectangle" x="48.2484112" y="26.832" width="5.66635514" height="2.832"></rect>
                        <rect id="Rectangle" x="36.9157009" y="33.912" width="7.08897196" height="2.832"></rect>
                        <rect id="Rectangle" x="36.9157009" y="40.968" width="2.84523364" height="2.832"></rect>
                        <rect id="Rectangle" x="42.5820561" y="40.968" width="2.84523364" height="2.832"></rect>
                        <rect id="Rectangle" x="48.2484112" y="40.968" width="2.84523364" height="2.832"></rect>
                        <rect id="Rectangle" x="53.9388785" y="40.968" width="12.7794393" height="2.832"></rect>
                        <path d="M79.5700935,28.248 C79.5700935,27.4659648 78.9331662,26.832 78.1474766,26.832 L68.1409346,26.832 C67.355245,26.832 66.7183178,27.4659648 66.7183178,28.248 L66.7183178,35.304 C66.7183178,36.0860352 67.355245,36.72 68.1409346,36.72 L78.0751402,36.72 C78.4524416,36.72 78.8142898,36.5708147 79.0810822,36.3052632 C79.3478746,36.0397117 79.497757,35.6795465 79.497757,35.304 L79.5700935,28.248 Z M76.7248598,33.888 L69.5394393,33.888 L69.5394393,29.664 L76.6284112,29.664 L76.7248598,33.888 Z" id="Shape" fill-rule="nonzero"></path>
                        <path d="M34.0704673,18.36 C34.0704673,17.5779648 33.43354,16.944 32.6478505,16.944 L7.08897196,16.944 C6.30328239,16.944 5.66635514,17.5779648 5.66635514,18.36 L5.66635514,46.632 C5.66635514,47.4140352 6.30328239,48.048 7.08897196,48.048 L32.6478505,48.048 C33.43354,48.048 34.0704673,47.4140352 34.0704673,46.632 L34.0704673,18.36 Z M25.5588785,45.216 L14.2020561,45.216 L14.2020561,42.384 C14.2020561,41.6019648 14.8389833,40.968 15.6246729,40.968 L24.1121495,40.968 C24.8978391,40.968 25.5347664,41.6019648 25.5347664,42.384 L25.5588785,45.216 Z M31.2252336,45.216 L28.38,45.216 L28.38,42.384 C28.38,40.0378944 26.4692183,38.136 24.1121495,38.136 L15.6246729,38.136 C13.2676042,38.136 11.3568224,40.0378944 11.3568224,42.384 L11.3568224,45.216 L8.51158879,45.216 L8.51158879,19.776 L31.3457944,19.776 L31.2252336,45.216 Z" id="Shape" fill-rule="nonzero"></path>
                        <rect id="Rectangle" x="5.66635514" y="50.856" width="28.38" height="2.832"></rect>
                        <path d="M19.8684112,35.328 C22.1698227,35.3159712 24.0471687,33.4898256 24.1121495,31.2 L24.1121495,28.248 C24.2324362,26.6585106 23.4486152,25.1357661 22.0822269,24.3044291 C20.7158386,23.4730921 18.9968717,23.4730921 17.6304834,24.3044291 C16.2640951,25.1357661 15.4802741,26.6585106 15.6005607,28.248 L15.6005607,31.2 C15.6658368,33.4991129 17.5576328,35.3289179 19.8684112,35.328 L19.8684112,35.328 Z M18.4457944,28.272 C18.4457944,27.4899648 19.0827216,26.856 19.8684112,26.856 C20.6541008,26.856 21.291028,27.4899648 21.291028,28.272 L21.291028,31.2 C21.291028,31.9820352 20.6541008,32.616 19.8684112,32.616 C19.0827216,32.616 18.4457944,31.9820352 18.4457944,31.2 L18.4457944,28.272 Z" id="Shape" fill-rule="nonzero"></path>
                        <rect id="Rectangle" x="44.0046729" y="50.856" width="12.7794393" height="2.832"></rect>
                        <rect id="Rectangle" x="63.8730841" y="50.856" width="12.7794393" height="2.832"></rect>
                    </g>
                </g>
            </g>
        </g>
    </g>
</svg>