<?xml version="1.0" encoding="UTF-8"?>
<svg width="107px" height="83px" viewBox="0 0 107 83" version="1.1" xmlns="http://www.w3.org/2000/svg" xmlns:xlink="http://www.w3.org/1999/xlink">
    <!-- Generator: Sketch 53.1 (72631) - https://sketchapp.com -->
    <title>Icon back</title>
    <desc>Created with Sketch.</desc>
    <g id="Portal" stroke="none" stroke-width="1" fill="none" fill-rule="evenodd" opacity="0.497209821">
        <g id="Formulario-Solicitar-tarjeta-2" transform="translate(-727.000000, -677.000000)" fill="#808080">
            <g id="Group" transform="translate(182.000000, 128.000000)">
                <g id="Icono-2" transform="translate(545.000000, 549.000000)">
                    <g id="Icon-back">
                        <rect id="Rectangle" x="19.1641791" y="27.9326923" width="15.1716418" height="3.19230769"></rect>
                        <rect id="Rectangle" x="39.1268657" y="27.9326923" width="15.1716418" height="3.19230769"></rect>
                        <rect id="Rectangle" x="19.1641791" y="35.1153846" width="7.18656716" height="3.19230769"></rect>
                        <rect id="Rectangle" x="30.3432836" y="35.1153846" width="5.58955224" height="3.19230769"></rect>
                        <rect id="Rectangle" x="19.1641791" y="42.2980769" width="7.18656716" height="3.19230769"></rect>
                        <rect id="Rectangle" x="19.1641791" y="48.6826923" width="2.39552239" height="3.19230769"></rect>
                        <rect id="Rectangle" x="24.7537313" y="48.6826923" width="2.39552239" height="3.19230769"></rect>
                        <rect id="Rectangle" x="30.3432836" y="48.6826923" width="2.39552239" height="3.19230769"></rect>
                        <rect id="Rectangle" x="35.9328358" y="48.6826923" width="12.7761194" height="3.19230769"></rect>
                        <rect id="Rectangle" x="51.1044776" y="48.6826923" width="9.58208955" height="3.19230769"></rect>
                        <rect id="Rectangle" x="19.1641791" y="59.0576923" width="27.9477612" height="3.19230769"></rect>
                        <rect id="Rectangle" x="56.6940299" y="59.0576923" width="12.7761194" height="3.19230769"></rect>
                        <rect id="Rectangle" x="75.858209" y="59.0576923" width="12.7761194" height="3.19230769"></rect>
                        <path d="M99.3422702,3.95131931 L92.2285129,3.95131931 L93.5089892,2.6641173 C94.1148447,2.05065934 94.1148447,1.06072736 93.5089892,0.447269396 C92.8935932,-0.149089799 91.9191204,-0.149089799 91.3037244,0.447269396 L87.3911579,4.40422372 C86.8008311,5.01479146 86.8008311,5.9866668 87.3911579,6.59723454 L91.3274369,10.5541889 C91.7171337,10.9501906 92.2873889,11.1071186 92.823393,10.9658595 C93.3593971,10.8246004 93.7797182,10.4066149 93.9260254,9.86935408 C94.0723327,9.33209323 93.9223985,8.75717977 93.5327017,8.36117804 L92.2522254,7.14548725 L99.3659827,7.14548725 C100.604945,7.1511206 101.788695,7.66148908 102.646725,8.55996453 C103.504754,9.45843998 103.963737,10.6682393 103.918787,11.9129021 C104.01059,13.1878412 103.573324,14.444111 102.710826,15.3833916 C101.848328,16.3226722 100.637541,16.861171 99.3659827,16.8710135 L94.7183279,16.8710135 L94.5286277,16.8710135 C93.5738237,14.0265836 90.9228599,12.109398 87.936546,12.1035987 L18.1505867,12.1035987 C14.3500438,12.1786843 11.2797379,15.2441207 11.1791045,19.0640244 L11.1791045,64.0207463 C11.25474,67.8592781 14.3321114,70.9528134 18.1505867,71.0288462 L87.9602585,71.0288462 C91.7787338,70.9528134 94.8561052,67.8592781 94.9317407,64.0207463 L94.9317407,61.6370389 L92.1573753,61.6370389 L92.1573753,64.0207463 C92.1573753,66.3509252 90.2782621,68.2399085 87.9602585,68.2399085 L18.1505867,68.2399085 C15.832583,68.2399085 13.9534698,66.3509252 13.9534698,64.0207463 L13.9534698,19.0640244 C13.9922919,16.7618198 15.8600822,14.9160427 18.1505867,14.9163734 L87.9602585,14.9163734 C90.2415296,14.929001 92.0950312,16.7710649 92.1336628,19.0640244 L92.1336628,48.5266481 L94.9317407,48.5266481 L94.9317407,19.922159 L99.3422702,19.922159 C101.447987,19.9964229 103.485306,19.1646089 104.94316,17.6353805 C106.401013,16.1061521 107.141076,14.0246049 106.977703,11.9129021 C107.134581,9.80719846 106.390742,7.73417064 104.932831,6.21398448 C103.47492,4.69379831 101.441308,3.87073538 99.3422702,3.95131931 Z" id="Path"></path>
                        <path d="M83.4623515,10.6057048 C83.8452126,11.0664068 84.4513403,11.2691147 85.0293506,11.1297579 C85.6073609,10.9904011 86.0586642,10.5327492 86.1960878,9.94660794 C86.3335115,9.36046665 86.1336156,8.74581236 85.6793045,8.35756548 L82.8187199,5.4567405 L85.6793045,2.55591553 C86.1534842,1.91809845 86.0894597,1.02298071 85.5294794,0.461228985 C84.969499,-0.100522744 84.0861578,-0.155767368 83.4623515,0.331949713 L79.5052095,4.3447576 C79.2124741,4.63827142 79.0491323,5.03929346 79.0522836,5.4567405 C79.0518022,5.87365663 79.2147352,6.27367516 79.5052095,6.56872341 L83.4623515,10.6057048 Z" id="Path"></path>
                        <path d="M19.4873993,76.3649669 L15.5771149,72.4517328 C15.1899917,72.057733 14.6235023,71.9015983 14.091038,72.0421433 C13.5585736,72.1826883 13.1410283,72.5985608 12.9956872,73.1331056 C12.8503462,73.6676504 12.9992902,74.2396575 13.3864135,74.6336573 L14.6584337,75.9143521 L7.59165474,75.9143521 C5.04899418,75.7356629 3.0770192,73.6068259 3.0770192,71.0405969 C3.0770192,68.4743679 5.04899418,66.3455309 7.59165474,66.1668418 L12.208617,66.1668418 C12.8053667,66.2412208 13.3912119,65.962464 13.712985,65.4510335 C14.0347581,64.9396031 14.0347581,64.2872098 13.712985,63.7757793 C13.3912119,63.2643489 12.8053667,62.9855921 12.208617,63.0599711 L7.6387666,63.0599711 C5.52510204,62.9761414 3.47804744,63.8133042 2.02113304,65.3573567 C0.564218645,66.9014092 -0.161272958,69.0026187 0.0302013003,71.1236049 C-0.126228789,73.2229459 0.615795582,75.2895394 2.06938378,76.802881 C3.52297197,78.3162225 5.54957716,79.13207 7.6387666,79.0449393 L14.7055455,79.0449393 L13.3864135,80.3493507 C12.784559,80.9597074 12.784559,81.944635 13.3864135,82.5549917 C13.9977455,83.1483361 14.9657829,83.1483361 15.5771149,82.5549917 L19.4873993,78.6180411 C19.7911245,78.3230406 19.9626866,77.9164002 19.9626866,77.491504 C19.9626866,77.0666077 19.7911245,76.6599674 19.4873993,76.3649669 Z" id="Path"></path>
                        <path d="M26.6956061,76.397215 L22.738862,72.3930703 C22.3560394,71.9333629 21.7499725,71.7310926 21.1720203,71.8701486 C20.5940681,72.0092046 20.1428102,72.4658684 20.0054004,73.0507443 C19.8679906,73.6356201 20.0678664,74.2489475 20.5221318,74.6363562 L23.3824288,77.5309186 L20.5221318,80.4496024 C20.0479998,81.0860425 20.1120178,81.9792278 20.6719419,82.5397668 C21.2318659,83.1003057 22.1151183,83.1554311 22.738862,82.6687669 L26.6956061,78.6646222 C26.988312,78.3717421 27.1516374,77.9715858 27.1484865,77.55504 C27.1619374,77.1223798 26.9980321,76.7033427 26.6956061,76.397215 Z" id="Path"></path>
                    </g>
                </g>
            </g>
        </g>
    </g>
</svg>