<?xml version="1.0" encoding="UTF-8"?>
<svg width="14px" height="18px" viewBox="0 0 14 18" version="1.1" xmlns="http://www.w3.org/2000/svg" xmlns:xlink="http://www.w3.org/1999/xlink">
    <!-- Generator: Sketch 53.1 (72631) - https://sketchapp.com -->
    <title>Combined Shape</title>
    <desc>Created with Sketch.</desc>
    <defs>
        <path d="M21,20.000011 L21,18 C21,15.7918507 22.7932416,14 25,14 C27.2081493,14 29,15.7932416 29,18 L29,20.0000109 C30.6587623,20.0045727 32,21.3390885 32,22.999615 L32,29.000385 C32,30.6573061 30.6500671,32 28.9914698,32 L21.0085302,32 C19.3458384,32 18,30.663757 18,29.000385 L18,22.999615 C18,21.3455353 19.3453069,20.0046061 21,20.0000118 Z M23,20 L27,20 L27,18 C27,16.8974639 26.1032323,16 25,16 C23.8974639,16 23,16.8967677 23,18 L23,20 Z M20,22.999615 L20,29.000385 C20,29.5559714 20.4472171,30 21.0085302,30 L28.9914698,30 C29.5478977,30 30,29.5503221 30,29.000385 L30,22.999615 C30,22.4440286 29.5527829,22 28.9914698,22 L21.0085302,22 C20.4521023,22 20,22.4496779 20,22.999615 Z M25,28 C23.8954305,28 23,27.1045695 23,26 C23,24.8954305 23.8954305,24 25,24 C26.1045695,24 27,24.8954305 27,26 C27,27.1045695 26.1045695,28 25,28 Z" id="path-1"></path>
    </defs>
    <g id="Portal" stroke="none" stroke-width="1" fill="none" fill-rule="evenodd">
        <g id="Ajustes--Cambiar-email" transform="translate(-384.000000, -392.000000)">
            <g id="Menu" transform="translate(366.000000, 283.000000)">
                <g id="Icon-1" transform="translate(0.000000, 95.000000)">
                    <mask id="mask-2" fill="white">
                        <use xlink:href="#path-1"></use>
                    </mask>
                    <use id="Combined-Shape" fill="#262628" fill-rule="nonzero" xlink:href="#path-1"></use>
                </g>
            </g>
        </g>
    </g>
</svg>