<?xml version="1.0" encoding="UTF-8"?>
<svg width="22px" height="20px" viewBox="0 0 22 20" version="1.1" xmlns="http://www.w3.org/2000/svg" xmlns:xlink="http://www.w3.org/1999/xlink">
    <!-- Generator: Sketch 53.1 (72631) - https://sketchapp.com -->
    <title>Group</title>
    <desc>Created with Sketch.</desc>
    <g id="Portal" stroke="none" stroke-width="1" fill="none" fill-rule="evenodd">
        <g id="Home---Activar-tarjeta" transform="translate(-48.000000, -674.000000)" fill="#808080" stroke="#979797" stroke-width="0.4">
            <g id="Menu" transform="translate(0.000000, 78.000000)">
                <g id="Legal" transform="translate(35.000000, 582.000000)">
                    <g id="Group" transform="translate(14.000000, 15.000000)">
                        <path d="M9.99080941,0.175411765 C9.83480108,0.177845839 9.68614956,0.242155088 9.57755728,0.354191869 C9.46896501,0.466228651 9.40932752,0.616815249 9.41176471,0.772823529 L9.41176471,14.8812941 C9.40876635,15.0934317 9.52022298,15.2907507 9.70345609,15.3976944 C9.8866892,15.5046382 10.1133108,15.5046382 10.2965439,15.3976944 C10.479777,15.2907507 10.5912336,15.0934317 10.5882353,14.8812941 L10.5882353,0.772823529 C10.5907224,0.613628201 10.528578,0.460222692 10.4159948,0.347642189 C10.3034117,0.235061686 10.1500047,0.172920916 9.99080941,0.175411765 Z" id="Path"></path>
                        <polygon id="Path" points="2.94117647 2.52835294 2.94117647 3.70482353 17.0588235 3.70482353 17.0588235 2.52835294"></polygon>
                        <path d="M5.89154353,16.646 C5.67940595,16.6430016 5.48208699,16.7544583 5.3751432,16.9376914 C5.26819942,17.1209245 5.26819942,17.3475461 5.3751432,17.5307792 C5.48208699,17.7140123 5.67940595,17.8254689 5.89154353,17.8224706 L14.1084565,17.8224706 C14.3205941,17.8254689 14.517913,17.7140123 14.6248568,17.5307792 C14.7318006,17.3475461 14.7318006,17.1209245 14.6248568,16.9376914 C14.517913,16.7544583 14.3205941,16.6430016 14.1084565,16.646 L5.89154353,16.646 L5.89154353,16.646 Z" id="Path"></path>
                        <path d="M2.92509176,2.52835294 C2.67237802,2.53507856 2.45221621,2.70250505 2.37821647,2.94423529 L0.0252752941,10.6097647 C0.00766031662,10.6678293 -0.000865613154,10.7282696 9.12358229e-14,10.7889412 C0.0130470588,12.4017647 1.34040706,13.7048235 2.95036706,13.7048235 C2.95115137,13.7048251 2.95193569,13.7048251 2.95272,13.7048235 C4.56552118,13.6930588 5.88242118,12.3764706 5.88240706,10.7636471 C5.88258304,10.7052604 5.87406616,10.6471728 5.85713647,10.5912941 L3.50419529,2.94423529 C3.42672338,2.6911249 3.18974759,2.5209238 2.92515059,2.52835294 L2.92509176,2.52835294 Z M2.94117412,5.12035294 L4.68979529,10.8027059 C4.66594824,11.7591765 3.91266941,12.5232941 2.95036471,12.5283529 C1.98490824,12.5283529 1.22532824,11.7745882 1.19255294,10.8188235 L2.94117647,5.12035294 L2.94117412,5.12035294 Z" id="Shape" fill-rule="nonzero"></path>
                        <polygon id="Path" points="0.703124706 10.1754118 0.703124706 11.3518824 5.17922824 11.3518824 5.17922824 10.1754118"></polygon>
                        <path d="M17.0427388,2.52835294 C16.7900251,2.53507856 16.5698633,2.70250505 16.4958635,2.94423529 L14.1429224,10.6097647 C14.1253074,10.6678293 14.1167814,10.7282696 14.1176471,10.7889412 C14.1306941,12.4017647 15.4580541,13.7048235 17.0680141,13.7048235 C17.0687984,13.7048251 17.0695827,13.7048251 17.0703671,13.7048235 C18.6831682,13.6930588 20.0000671,12.3764706 20.0000541,10.7636471 C20.0002301,10.7052604 19.9917132,10.6471728 19.9747835,10.5912941 L17.6218424,2.94423529 C17.5443704,2.6911249 17.3073947,2.5209238 17.0427976,2.52835294 L17.0427388,2.52835294 Z M17.0588212,5.12035294 L18.8074424,10.8027059 C18.7835953,11.7591765 18.0303165,12.5232941 17.0680118,12.5283529 C16.1025565,12.5283529 15.3429753,11.7745882 15.3102,10.8188235 L17.0588235,5.12035294 L17.0588212,5.12035294 Z" id="Shape" fill-rule="nonzero"></path>
                        <polygon id="Path" points="14.8207718 10.1754118 14.8207718 11.3518824 19.2968753 11.3518824 19.2968753 10.1754118"></polygon>
                        <path d="M10.0091906,14.8812941 C8.72031529,14.8812941 7.65753176,15.9270588 7.64705882,17.2158824 C7.64282767,17.427419 7.7525157,17.6249347 7.93432177,17.7331577 C8.11612784,17.8413808 8.34204548,17.8436399 8.52597944,17.7390743 C8.7099134,17.6345086 8.82352941,17.4392261 8.82352941,17.2276471 C8.82882353,16.5729412 9.34983882,16.0577647 10.0045953,16.0603529 C10.6593529,16.0603529 11.1764765,16.5821176 11.1764706,17.2368235 C11.1734704,17.4489623 11.2849266,17.6462832 11.4681605,17.7532281 C11.6513944,17.860173 11.8780174,17.860173 12.0612513,17.7532281 C12.2444851,17.6462832 12.3559413,17.4489623 12.3529412,17.2368235 C12.3529518,15.948 11.2980671,14.8891765 10.0091906,14.8838824 L10.0091906,14.8812941 Z" id="Path"></path>
                    </g>
                </g>
            </g>
        </g>
    </g>
</svg>