<?xml version="1.0" encoding="UTF-8"?>
<svg width="19px" height="19px" viewBox="0 0 19 19" version="1.1" xmlns="http://www.w3.org/2000/svg" xmlns:xlink="http://www.w3.org/1999/xlink">
    <!-- Generator: Sketch 53.1 (72631) - https://sketchapp.com -->
    <title>Group</title>
    <desc>Created with Sketch.</desc>
    <g id="Portal" stroke="none" stroke-width="1" fill="none" fill-rule="evenodd">
        <g id="Legal" transform="translate(-383.000000, -530.000000)" fill="#000000">
            <g id="Menu" transform="translate(366.000000, 283.000000)">
                <g id="Icon-4" transform="translate(0.000000, 233.000000)">
                    <g id="Group" transform="translate(17.000000, 14.000000)">
                        <path d="M18.5877638,15.5541884 L15.3174357,15.5541884 L15.3174357,0.596868217 C15.3174357,0.369212518 15.1328552,0.184632014 14.9051995,0.184632014 L0.412236202,0.184632014 C0.184580482,0.184632036 0,0.369212518 0,0.596868217 L0,15.9664375 C0,17.5373881 1.27797988,18.815368 2.84903362,18.815368 L16.1509664,18.815368 C17.7220201,18.815368 19,17.5373881 19,15.9664375 C19,15.7387689 18.8154195,15.5541884 18.5877638,15.5541884 Z M2.84903362,17.9908827 C1.73268568,17.9908827 0.824472383,17.0826823 0.824472383,15.9664375 L0.824472383,1.00910442 L14.4929504,1.00910442 L14.4929504,15.5541884 L5.28562486,15.5541884 C5.05796916,15.5541884 4.87338866,15.7387689 4.87338866,15.9664375 C4.87338868,17.0826823 3.96517538,17.9908827 2.84903362,17.9908827 Z M16.1509664,17.9908827 L4.85165133,17.9908827 C5.2813985,17.565568 5.5768948,17.0047784 5.66807046,16.3786736 L18.1332513,16.3786736 C17.9424343,17.2979553 17.1260023,17.9908827 16.1509664,17.9908827 Z" id="Shape" fill-rule="nonzero"></path>
                        <path d="M3.66516927,3.62817586 L12.0448785,3.62817586 C12.2734361,3.62817586 12.4587511,3.44286093 12.4587511,3.21430326 C12.4587511,2.98574558 12.2734361,2.80043065 12.0448785,2.80043065 L3.66516927,2.80043065 C3.43659872,2.80043065 3.25129666,2.98574558 3.25129666,3.21430326 C3.25129666,3.44286093 3.43659872,3.62817586 3.66516927,3.62817586 Z" id="Path"></path>
                        <path d="M3.66516927,5.69753893 L12.0448785,5.69753893 C12.2734361,5.69753893 12.4587511,5.51222399 12.4587511,5.28366632 C12.4587511,5.05510865 12.2734361,4.86979371 12.0448785,4.86979371 L3.66516927,4.86979371 C3.43659872,4.86979371 3.25129666,5.05510865 3.25129666,5.28366632 C3.25129666,5.51222399 3.43659872,5.69753893 3.66516927,5.69753893 Z" id="Path"></path>
                        <path d="M3.66516927,7.766902 L12.0448785,7.766902 C12.2734361,7.766902 12.4587511,7.58158706 12.4587511,7.35302939 C12.4587511,7.12447172 12.2734361,6.93915678 12.0448785,6.93915678 L3.66516927,6.93915678 C3.43659872,6.93915678 3.25129666,7.12447172 3.25129666,7.35302939 C3.25129666,7.58158706 3.43659872,7.766902 3.66516927,7.766902 Z" id="Path"></path>
                        <path d="M3.66516927,9.83626506 L12.0448785,9.83626506 C12.2734361,9.83626506 12.4587511,9.65095012 12.4587511,9.42239245 C12.4587511,9.19383478 12.2734361,9.00851984 12.0448785,9.00851984 L3.66516927,9.00851984 C3.43659872,9.00851984 3.25129666,9.19383478 3.25129666,9.42239245 C3.25129666,9.65095012 3.43659872,9.83626506 3.66516927,9.83626506 Z" id="Path"></path>
                        <path d="M3.66516927,11.9056281 L12.0448785,11.9056281 C12.2734361,11.9056281 12.4587511,11.7203132 12.4587511,11.4917555 C12.4587511,11.2631978 12.2734361,11.0778829 12.0448785,11.0778829 L3.66516927,11.0778829 C3.43659872,11.0778829 3.25129666,11.2631978 3.25129666,11.4917555 C3.25129666,11.7203132 3.43659872,11.9056281 3.66516927,11.9056281 Z" id="Path"></path>
                        <path d="M8.34446818,13.5611186 C8.34446818,13.3325609 8.15915324,13.147246 7.93059557,13.147246 L3.66516927,13.147246 C3.43659872,13.147246 3.25129666,13.3325609 3.25129666,13.5611186 C3.25129666,13.7896762 3.43659872,13.9749912 3.66516927,13.9749912 L7.93059557,13.9749912 C8.15915324,13.9749912 8.34446818,13.7896762 8.34446818,13.5611186 Z" id="Path"></path>
                    </g>
                </g>
            </g>
        </g>
    </g>
</svg>