<?xml version="1.0" encoding="UTF-8"?>
<svg width="21px" height="21px" viewBox="0 0 21 21" version="1.1" xmlns="http://www.w3.org/2000/svg" xmlns:xlink="http://www.w3.org/1999/xlink">
    <!-- Generator: Sketch 53.1 (72631) - https://sketchapp.com -->
    <title>Shape</title>
    <desc>Created with Sketch.</desc>
    <g id="Portal" stroke="none" stroke-width="1" fill="none" fill-rule="evenodd">
        <g id="Home---Activar-tarjeta" transform="translate(-48.000000, -391.000000)" fill="#808080" fill-rule="nonzero" stroke="#808080" stroke-width="0.4">
            <g id="Menu" transform="translate(0.000000, 78.000000)">
                <g id="Mis-prestamos" transform="translate(35.000000, 299.000000)">
                    <path d="M23.5,15 C18.2613322,15 14,19.2613322 14,24.5 C14,29.7386678 18.2613322,34 23.5,34 C28.7386678,34 33,29.7386678 33,24.5 C33,19.2613322 28.7386678,15 23.5,15 Z M23.5,16.1875 C28.0990714,16.1875 31.8125,19.9009279 31.8125,24.5 C31.8125,29.0990714 28.0990714,32.8125 23.5,32.8125 C18.9009279,32.8125 15.1875,29.0990714 15.1875,24.5 C15.1875,19.9009279 18.9009279,16.1875 23.5,16.1875 Z M23.434073,18.5654332 C23.4043302,18.5705115 23.3749684,18.5773789 23.3461703,18.5859925 C23.0187305,18.6545968 22.7887014,18.9300566 22.7967787,19.243889 L22.7967787,19.9223448 C22.1776922,19.9811233 21.6158641,20.1386915 21.1266281,20.4157672 C20.4589069,20.7939268 19.9838935,21.4983123 19.9838935,22.3072197 C19.9838935,22.9194858 20.2485685,23.4407359 20.5992122,23.8286054 C20.9498559,24.2164749 21.3761057,24.4822368 21.7858981,24.6715353 C22.6054828,25.0501324 23.3901217,25.1649577 23.3901217,25.1649577 C23.3901217,25.1649577 24.0119254,25.2433737 24.5987833,25.5144653 C24.8922122,25.650011 25.1691836,25.8329082 25.3459559,26.0284469 C25.5227281,26.2239856 25.6096639,26.4131026 25.6096639,26.7069027 C25.6096639,27.1103992 25.4831438,27.2778878 25.1481749,27.4675956 C24.813206,27.6573033 24.2253531,27.7965438 23.5,27.7965438 C22.036946,27.7965438 21.0607011,27.2414436 21.0607011,27.2414436 C20.8486336,27.0937778 20.5659663,27.0698423 20.329005,27.1794857 C20.0920437,27.2891291 19.9408191,27.513829 19.9375539,27.7611306 C19.9342887,28.0084322 20.0795344,28.2365581 20.3135285,28.351644 C20.3135285,28.351644 21.3096422,28.9218982 22.7967787,29.0712183 L22.7967787,29.7702334 C22.7931921,30.0074945 22.9264353,30.2281829 23.1454871,30.3477927 C23.3645388,30.4674024 23.6354612,30.4674024 23.8545129,30.3477927 C24.0735647,30.2281829 24.2068079,30.0074945 24.2032213,29.7702334 L24.2032213,29.0917776 C24.8223078,29.0329992 25.3841359,28.875431 25.8733719,28.5983552 C26.5410931,28.2201956 27.0161065,27.5158102 27.0161065,26.7069027 C27.0161065,26.0946366 26.7514315,25.5733865 26.4007878,25.185517 C26.0501441,24.7976475 25.6238943,24.5318856 25.2141019,24.3425871 C24.3945172,23.96399 23.6098783,23.8491647 23.6098783,23.8491647 C23.6098783,23.8491647 22.9880746,23.7707487 22.4012167,23.4996572 C22.1077878,23.3641114 21.8308164,23.1812142 21.6540441,22.9856755 C21.4772719,22.7901368 21.3903361,22.6010199 21.3903361,22.3072197 C21.3903361,21.9037232 21.5168562,21.7362346 21.8518251,21.5465269 C22.186794,21.3568191 22.7746469,21.2175786 23.5,21.2175786 C24.963054,21.2175786 25.9392989,21.7726788 25.9392989,21.7726788 C26.1513664,21.9203447 26.4340337,21.9442801 26.670995,21.8346367 C26.9079563,21.7249933 27.0591809,21.5002935 27.0624461,21.2529918 C27.0657113,21.0056902 26.9204656,20.7775643 26.6864715,20.6624784 C26.6864715,20.6624784 25.6903578,20.0922242 24.2032213,19.9429041 L24.2032213,19.243889 C24.2104276,19.0546347 24.130122,18.871652 23.9828426,18.7417387 C23.8355632,18.6118255 23.6355925,18.5475801 23.434073,18.5654332 Z" id="Shape"></path>
                </g>
            </g>
        </g>
    </g>
</svg>