<?xml version="1.0" standalone="no"?>
<!DOCTYPE svg PUBLIC "-//W3C//DTD SVG 20010904//EN"
 "http://www.w3.org/TR/2001/REC-SVG-20010904/DTD/svg10.dtd">
<svg version="1.0" xmlns="http://www.w3.org/2000/svg"
 width="218.000000pt" height="218.000000pt" viewBox="0 0 218.000000 218.000000"
 preserveAspectRatio="xMidYMid meet">
<metadata>
Created by potrace 1.15, written by Peter Selinger 2001-2017
</metadata>
<g transform="translate(0.000000,218.000000) scale(0.100000,-0.100000)"
fill="#000000" stroke="none">
<path d="M880 2165 c-223 -44 -420 -154 -581 -322 -203 -213 -299 -455 -299
-753 0 -298 96 -540 299 -753 164 -171 360 -279 589 -323 95 -18 309 -18 404
0 229 44 425 152 589 323 203 213 299 455 299 753 0 298 -96 540 -299 753
-164 171 -360 279 -589 323 -91 17 -323 17 -412 -1z m-189 -384 c20 -20 29
-39 29 -61 0 -43 -47 -90 -90 -90 -43 0 -90 47 -90 90 0 43 47 90 90 90 22 0
41 -9 61 -29z m860 0 c20 -20 29 -39 29 -61 0 -43 -47 -90 -90 -90 -43 0 -90
47 -90 90 0 22 9 41 29 61 20 20 39 29 61 29 22 0 41 -9 61 -29z m-863 -296
c25 -21 31 -35 37 -88 14 -128 93 -240 203 -290 66 -30 198 -30 264 0 110 50
189 162 203 290 6 53 12 67 37 88 40 34 82 33 119 -4 l29 -29 0 -467 0 -467
-29 -29 c-37 -37 -79 -38 -120 -3 l-31 26 0 249 c0 137 -2 249 -4 249 -2 0
-30 -16 -62 -35 -171 -103 -377 -103 -548 0 -32 19 -60 35 -62 35 -2 0 -4
-112 -4 -249 l0 -249 -31 -26 c-41 -35 -83 -34 -120 3 l-29 29 0 467 0 467 29
29 c37 37 79 38 119 4z"/>
</g>
</svg>
